<svg width="80" height="90" viewBox="0 0 80 90" fill="none" xmlns="http://www.w3.org/2000/svg">
<g clip-path="url(#clip0)" filter="url(#filter0_d)">
<path d="M67.9929 42.2361C67.9929 52.0556 62.1029 60.6111 53.3769 65.2778L54.9039 71.4028C55.1221 72.2778 54.9039 73.1528 54.2495 73.9306C53.595 74.6111 52.7224 75 51.6317 75H44.3237C43.8874 75 43.5601 74.9028 43.1238 74.8056C42.7966 74.9028 42.3603 75 42.0331 75H34.0706C33.6343 75 33.3071 74.9028 32.8708 74.8056C32.5436 74.9028 32.1073 75 31.78 75H24.3629C23.3812 75 22.3996 74.6111 21.7451 73.9306C21.1997 73.1528 20.9816 72.2778 21.1997 71.4028L22.7268 65.2778C13.8917 60.6111 8.00166 52.0556 8.00166 42.2361C8.00166 29.0139 18.9092 17.9306 33.0889 15.8889L34.616 7.52778C34.8341 6.06944 36.2521 5 37.8882 5C39.5244 5 40.8333 6.06944 41.1605 7.52778L42.5785 15.8889C56.9764 17.8333 67.9929 28.9167 67.9929 42.2361ZM51.9589 34.4583H24.0357L29.0532 42.3333H47.0505L51.9589 34.4583ZM39.1971 15.5972L37.8882 7.91667L36.5793 15.5972L35.8158 19.7778H39.9607L39.1971 15.5972ZM42.1422 25.9028L44.6509 21.8194H31.3437L33.8525 25.9028L32.8708 32.5139H43.2329L42.2512 25.9028H42.1422ZM24.3629 72.0833H31.78L32.1073 68.4861L34.3978 44.5694H31.3437L25.7809 66.6389L24.3629 72.0833ZM34.3978 68.7778L34.0706 72.0833H42.0331L41.7059 68.7778L39.3062 44.5694H36.6884L34.3978 68.7778ZM44.3237 72.0833H51.6317L50.3228 66.6389L44.6509 44.5694H41.7059L43.9964 68.4861L44.3237 72.0833Z" fill="#2F80ED" fill-opacity="0.7"/>
</g>
<defs>
<filter id="filter0_d" x="0" y="0" width="80" height="90" filterUnits="userSpaceOnUse" color-interpolation-filters="sRGB">
<feFlood flood-opacity="0" result="BackgroundImageFix"/>
<feColorMatrix in="SourceAlpha" type="matrix" values="0 0 0 0 0 0 0 0 0 0 0 0 0 0 0 0 0 0 127 0"/>
<feOffset dx="2" dy="5"/>
<feGaussianBlur stdDeviation="5"/>
<feColorMatrix type="matrix" values="0 0 0 0 0 0 0 0 0 0 0 0 0 0 0 0 0 0 0.25 0"/>
<feBlend mode="normal" in2="BackgroundImageFix" result="effect1_dropShadow"/>
<feBlend mode="normal" in="SourceGraphic" in2="effect1_dropShadow" result="shape"/>
</filter>
<clipPath id="clip0">
<rect width="60" height="70" fill="white" transform="translate(8 5)"/>
</clipPath>
</defs>
</svg>
